<?xml version="1.0" encoding="utf-8"?>
<!-- Generator: Adobe Illustrator 23.0.1, SVG Export Plug-In . SVG Version: 6.00 Build 0)  -->
<svg version="1.1" id="Layer_1" xmlns="http://www.w3.org/2000/svg" xmlns:xlink="http://www.w3.org/1999/xlink" x="0px" y="0px"
	 viewBox="0 0 813.29 363" style="enable-background:new 0 0 813.29 363;" xml:space="preserve">
<style type="text/css">
	.st0{fill:#FFFFFF;}
</style>
<g>
	<g>
		<path class="st0" d="M25.65,284c12.66-0.06,25.32-0.03,37.98-0.18c20.14-0.25,40.28-0.64,60.41-0.93
			c25.8-0.37,51.6-0.66,77.4-1.05c17.64-0.27,35.27-0.68,52.91-0.97c22.97-0.38,45.95-0.7,68.92-1.06
			c19.14-0.3,38.28-0.64,57.43-0.93c24.63-0.37,49.27-0.69,73.9-1.06c18.8-0.28,37.6-0.62,56.41-0.92c1.97-0.03,3.93,0,6.46,0
			c-1.84,5.38-3.48,10.17-5.12,14.98c-1.57,0.09-2.71,0.21-3.86,0.2c-15.33-0.08-30.66-0.11-45.99-0.28
			c-21.97-0.25-43.96-0.09-65.9-1.06c-23.64-1.04-47.27-0.48-70.9-0.92c-19.47-0.37-38.94-0.65-58.41-0.99
			c-16.81-0.29-33.61-0.65-50.42-0.92c-23.64-0.38-47.27-0.7-70.91-1.04c-23.63-0.35-47.27-0.67-70.9-1.06
			c-14.47-0.24-28.95-0.61-43.42-0.9c-1.99-0.04-3.99,0.06-5.99,0.1C25.65,284.67,25.65,284.33,25.65,284z"/>
		<path class="st0" d="M789.65,285c-13.13,0.38-26.26,0.76-39.38,1.15c-10.97,0.33-21.93,0.66-32.9,1.05
			c-7.47,0.26-14.94,0.65-22.4,0.94c-8.8,0.34-17.61,0.64-26.41,0.93c-10.63,0.35-21.27,0.59-31.9,1.03
			c-12.77,0.52-25.53,1.26-38.3,1.78c-5.66,0.23-11.32,0.16-16.99,0.18c-0.79,0-1.57-0.24-2.73-0.43c1.74-4.96,3.37-9.62,5.08-14.5
			c1.69-0.08,3.16-0.23,4.61-0.2c16.79,0.39,33.59,0.76,50.38,1.23c8.64,0.24,17.27,0.67,25.9,1c9.14,0.35,18.28,0.67,27.42,1
			c8.64,0.31,17.28,0.61,25.92,0.9c9.97,0.34,19.93,0.67,29.9,1.01c10.3,0.35,20.6,0.66,30.89,1.08c3.64,0.15,7.28,0.56,10.92,0.85
			C789.65,284.33,789.65,284.67,789.65,285z"/>
		<path class="st0" d="M306.65,353c-1.25-0.76-2.44-1.65-3.76-2.27c-5.57-2.64-10.77-12.07-8.48-19.59
			c2.31-7.57,8.77-12.92,16.71-13.35c6.28-0.34,11.49,1.52,15.57,6.25c7.21,8.37,5.31,21.52-5.98,27.44
			c-1.01,0.53-2.04,1.02-3.06,1.52C313.98,353,310.31,353,306.65,353z M312.33,322.87c-7.49-0.01-13.28,5.33-13.47,12.42
			c-0.19,6.86,6.19,12.46,13.76,12.8c5.83,0.26,13.26-5.32,13.05-12.86C325.47,327.97,320.11,322.87,312.33,322.87z"/>
		<path class="st0" d="M241.65,353c-2.21-5.35-4.37-10.73-6.64-16.06c-1.82-4.28-3.81-8.48-5.67-12.74c-0.66-1.5-1.17-3.06-1.9-5
			c1.79,0,3.2,0,4.89,0c3.22,7.17,6.45,14.36,10.09,22.46c3.67-8.08,6.94-15.27,10.24-22.53c1.66,0,3.09,0,5.17,0
			c-5.19,11.58-10.18,22.73-15.17,33.87C242.31,353,241.98,353,241.65,353z"/>
		<path class="st0" d="M305.87,134.47c-32.16-4.02-63.25-7.91-95-11.88c1.32-0.62,2.14-1.27,3.02-1.38
			c6.75-0.82,13.53-1.48,20.28-2.29c8.24-0.99,16.46-2.06,24.69-3.12c6.9-0.89,13.79-1.86,20.69-2.73
			c8.55-1.08,17.1-2.09,26.12-3.19c1.49-8.1,2.22-16.13,3.12-24.14c0.91-8.07,1.99-16.13,3-24.19c0.99-7.9,1.95-15.8,2.99-23.69
			c1.05-8.04,2.18-16.07,3.72-24.14c4.02,31.88,8.05,63.76,12.12,96.08c31.91,4.02,63.58,8,95.25,11.98
			c-0.02,0.26-0.04,0.53-0.06,0.79c-31.45,3.93-62.91,7.86-94.75,11.84c-0.48,2.22-1.05,4.27-1.34,6.36
			c-1.31,9.69-2.59,19.39-3.79,29.1c-0.84,6.75-1.48,13.52-2.31,20.27c-1.12,9.05-2.33,18.08-3.5,27.12
			c-0.55,4.27-1.1,8.54-2.11,12.83c-1.4-10.52-2.83-21.03-4.2-31.55c-1.38-10.69-2.79-21.39-4.02-32.1
			C308.56,155.8,307.34,145.15,305.87,134.47z"/>
		<path class="st0" d="M180.78,212.54c-0.12,1.61-0.06,3.1-0.36,4.51c-1.22,5.68-2.64,11.31-3.82,17c-0.45,2.18-1.83,3.48-3.44,4.69
			c-5.51,4.17-11.73,6.97-18.29,8.96c-7.47,2.27-15.12,3.65-22.91,4.56c-9.8,1.15-19.62,1.37-29.4,0.72
			c-31.89-2.11-58.98-22.19-66.69-54.44c-6.52-27.29-2-52.95,15.7-75.41c11.46-14.54,26.51-23.66,44.7-27.07
			c19.39-3.64,38.38-1.63,56.64,5.92c4.12,1.7,7.95,4.15,11.83,6.4c3.73,2.16,7.34,4.6,11.43,0.07c1.05,1.16,2.01,1.84,2.43,2.77
			c0.54,1.18,0.84,2.55,0.91,3.86c0.47,8.79,0.88,17.59,1.24,26.39c0.07,1.81,0.12,3.74-2.18,4.54c-2.72-0.29-3.26-2.61-4.15-4.49
			c-3.72-7.9-8.66-15.02-14.48-21.44c-9.49-10.48-21.2-16.69-35.5-18.32c-13.4-1.52-26.2-0.01-38.46,5.49
			c-15.11,6.77-24.18,18.85-29.21,34.25c-3.93,12.03-5.02,24.49-3.85,36.97c1.68,17.89,7.19,34.51,19.34,48.26
			c8.39,9.5,18.8,15.97,31.36,18.19c20.8,3.69,40.07-0.31,57.11-13.06c6.26-4.68,12.06-10.01,14.97-17.68
			C176.48,212.16,177.94,211.38,180.78,212.54z"/>
		<path class="st0" d="M420.8,197.92c0-5.88,0-11.51,0-17.15c0-8-4.21-13-11.31-15.97c-2.95-1.23-5.98-1.96-9.22-1.82
			c-2.99,0.12-6.01-0.11-8.99,0.14c-7.86,0.66-11.94,5.47-11.47,13.37c0.07,1.15,0.5,2.27,0.61,3.42c0.22,2.45,0.33,4.9,0.45,6.9
			c-2.43,2.67-4.96,2.58-7.39,1.88c-2.9-0.84-5.85-2.11-7.18-4.99c-0.69-1.49-0.62-3.61-0.22-5.28c1.39-5.94,5.12-10.43,9.87-14
			c6.43-4.81,13.71-7.44,21.8-7.53c6.15-0.06,12.36-0.55,18.37,1.12c3.51,0.97,7.08,2.01,10.3,3.64c7.51,3.8,11.21,10.22,11.24,18.6
			c0.06,15.5-0.01,30.99-0.02,46.49c0,3.16-0.14,6.34,0.1,9.49c0.41,5.57,3.96,8.66,9.54,8.72c2.06,0.02,4.3-0.88,6.29,0.95
			c-0.09,2.36-1.6,3.65-3.52,4.32c-4.26,1.51-8.65,2.38-13.19,1.44c-6.79-1.42-8.56-2.75-13.66-10.25c-2.28,1.5-4.55,3.05-6.87,4.51
			c-10.45,6.62-22.02,8.65-34.01,6.91c-13.22-1.92-17.11-11.68-16.37-22.81c0.54-8.2,5.02-14.12,12.06-18.42
			c7.8-4.76,16.37-7.31,25.07-9.55c4.98-1.29,10.08-2.1,15.11-3.18C419.12,198.67,420.01,198.21,420.8,197.92z M420.82,203.96
			c-6.11,1.44-11.94,2.66-17.69,4.2c-4.98,1.33-9.79,3.21-14.04,6.23c-7.85,5.57-10.52,14.45-7.13,23.33
			c1.68,4.4,4.81,7.01,9.31,8.19c8.1,2.13,15.39,0.2,22.25-4.21c5.03-3.23,7.52-7.64,7.36-13.75
			C420.66,220.17,420.82,212.37,420.82,203.96z"/>
		<path class="st0" d="M281.49,245.97c0.07,2.62-1.81,3.75-3.86,4.47c-6.01,2.12-12,2.2-17.96-0.36c-3.92-1.69-6.16-4.92-8.13-8.84
			c-1.12,0.71-2.07,1.23-2.94,1.88c-10.61,7.91-22.53,11.08-35.67,10.04c-13.87-1.1-20.08-10.48-18.89-23.58
			c0.69-7.64,4.67-13.28,11.1-17.42c8.11-5.22,17.18-7.89,26.38-10.19c4.99-1.25,10.07-2.1,15.1-3.18c0.79-0.17,1.52-0.61,2.66-1.08
			c0.12-7.05,0.74-14.19-0.92-21.21c-1.73-7.32-9.03-12.89-17.41-13.43c-3.81-0.24-7.68-0.26-11.48,0.05
			c-9.21,0.74-12.32,6.41-11.53,14.67c0.2,2.14,0.96,4.22,1.21,6.36c0.35,2.98-1.19,4.69-4.22,4.86c-3.92,0.22-7.1-1.42-9.81-4.09
			c-1.92-1.9-1.7-4.19-1.08-6.53c1.58-5.89,5.17-10.42,9.94-13.97c6.43-4.79,13.69-7.46,21.79-7.53c6.15-0.05,12.35-0.56,18.36,1.13
			c3.66,1.03,7.39,2.13,10.72,3.9c7,3.72,10.78,9.69,10.77,17.79c0,15.15-0.02,30.31-0.02,45.46c0,3.5-0.16,7.01,0.15,10.48
			c0.58,6.63,3.79,9.29,10.49,9.24C277.96,244.89,279.9,244.16,281.49,245.97z M249.05,204.11c-3.29,0.67-6.34,1.28-9.39,1.92
			c-7.34,1.54-14.52,3.55-21.02,7.43c-6.87,4.09-10.42,10.04-9.9,18.17c0.48,7.63,4.18,12.61,10.3,14.25
			c7.71,2.07,14.78,0.43,21.49-3.46c6-3.48,8.87-8.77,8.87-15.65c0-6.65,0.01-13.3-0.01-19.95
			C249.37,206.02,249.19,205.22,249.05,204.11z"/>
		<path class="st0" d="M462.83,101.63c0.43-2.56,1.81-3.23,3.56-3.63c6.89-1.57,13.15-4.6,19.12-8.31c3.32-2.07,3.38-2.02,7.49-1.37
			c1.75,1.69,1.47,3.92,1.47,6.06c0.01,14.99,0,29.98,0,44.96c0,30.64,0,61.28,0,91.93c0,1.5-0.01,3,0.04,4.5
			c0.14,3.94,2.14,6.63,5.79,7.92c2.02,0.71,4.22,0.88,6.28,1.49c2.28,0.68,5.12,0.63,5.87,3.73c-0.54,2.18-1.99,3.04-4.03,3.07
			c-1.83,0.02-3.66,0.02-5.49-0.04c-8.46-0.24-16.93-0.6-25.39-0.7c-2.92-0.03-5.85,0.56-9.11,0.9c-0.44-1.63-0.75-2.82-1.08-4.06
			c0.61-0.49,0.96-0.86,1.38-1.09c1.02-0.57,2.05-1.1,3.1-1.61c4.16-2.02,6.01-5.12,5.97-9.94c-0.18-21.48-0.08-42.97-0.08-64.45
			c0-18.32,0-36.64,0-54.96c0-1.33,0.05-2.67-0.03-4c-0.29-4.54-2.42-7.02-6.83-7.95c-1.95-0.41-3.93-0.66-5.86-1.14
			C464.25,102.76,463.62,102.13,462.83,101.63z"/>
		<path class="st0" d="M512.6,162.7c0.2-3.13,1.74-3.66,3.52-3.66c2.83,0,5.7-0.13,8.48,0.3c5.65,0.87,11.23,0.89,16.88,0.02
			c2.45-0.38,5-0.44,7.48-0.3c1.54,0.09,3.04,0.82,4.25,1.17c0.71,2.76-0.57,3.7-2.32,4.22c-1.59,0.47-3.23,0.74-4.82,1.21
			c-4.51,1.36-6,3.85-4.52,8.25c1.86,5.51,3.97,10.93,6.09,16.35c5.75,14.71,11.57,29.39,17.59,44.67c1.15-2.87,2.23-5.24,3.06-7.69
			c5.02-14.8,10.02-29.61,14.91-44.46c0.77-2.33,1.25-4.85,1.35-7.3c0.22-5.18-1.5-7.51-6.41-9.43c-1.55-0.61-3.16-1.03-4.71-1.64
			c-1.41-0.56-2.78-1.25-2.64-3.23c0.97-1.89,2.79-2.17,4.64-2.14c2.66,0.04,5.31,0.37,7.96,0.42c4.13,0.07,8.27,0.06,12.4-0.01
			c1.82-0.03,3.64-0.41,5.46-0.42c1.99-0.02,3.55,0.79,4.24,3.57c-0.91,0.69-1.9,1.95-3.14,2.29c-4.73,1.31-7.01,4.79-8.57,9.01
			c-1.04,2.81-2.04,5.63-3.02,8.46c-10.29,29.7-20.57,59.4-30.86,89.1c-2.67,7.69-5.36,15.37-8.14,23.32
			c-5.19,1.59-10.28,1.71-15.93-0.38c0.64-1.5,0.95-2.77,1.66-3.76c2.81-3.92,5.93-7.63,8.59-11.64c2.66-4,5.18-8.14,7.29-12.45
			c3.24-6.61,3.27-13.45,0.47-20.3c-5.67-13.85-11.3-27.72-16.93-41.59c-4.19-10.32-8.43-20.63-12.51-31
			c-1.54-3.91-3.62-7.01-7.84-8.41C515.08,164.76,513.85,163.53,512.6,162.7z"/>
		<path class="st0" d="M744.71,155.79c1.34,3.59,0.26,6.36-4.94,13.1c-8.92,0-18.06,0-27.59,0c-0.15,1.5-0.39,2.75-0.39,4.01
			c-0.02,19-0.04,38,0.01,57c0,1.8,0.3,3.64,0.7,5.41c1.32,5.81,5.25,9.22,11.1,9.73c6.25,0.54,12.29-0.15,17.95-3.11
			c1.31-0.69,2.72-1.18,4-1.72c2.44,2.19,2.73,2.78,1.03,4.3c-2.08,1.86-4.4,3.6-6.9,4.81c-8.35,4.05-17.32,4.71-26.35,3.58
			c-8.74-1.1-15.22-7.58-16.75-16.21c-0.58-3.25-0.92-6.59-0.93-9.89c-0.09-17.33-0.04-34.66-0.04-52c0-1.79,0-3.58,0-5.15
			c-4.11-1.76-8.47,0.75-12.33-2.4c4.06-5.25,9.17-9.08,13.43-14.14c0-4.93,0-10.07,0-15.54c4.79-2.76,9.51-5.48,14.93-8.6
			c0.34,10.28-0.06,20,0.25,29.91c1.68,0.12,2.96,0.28,4.25,0.29c5,0.03,10-0.05,15,0.03C735.97,159.28,740.81,159.6,744.71,155.79z
			"/>
		<path class="st0" d="M614.55,246.68c-0.37-2.05-0.93-3.8-0.97-5.56c-0.12-5.83-0.08-11.66-0.05-17.49
			c0.01-1.99-0.12-4.12,2.45-4.78c1.93,0.22,2.36,1.69,2.8,3.13c0.98,3.18,1.87,6.38,2.95,9.52c1.37,3.98,3.46,7.54,6.42,10.58
			c2.16,2.21,4.71,3.81,7.68,4.42c4.94,1.03,9.94,1.21,14.75-0.65c6.5-2.51,10.18-7.37,10.92-14.24c0.74-6.83-2.12-12.05-8.15-15.28
			c-5.42-2.9-11.06-5.39-16.5-8.26c-4.11-2.17-8.23-4.39-12.06-7.02c-15.73-10.79-10.93-32.63,2.48-40.08
			c8.19-4.55,16.84-4.72,25.7-3.63c3.11,0.38,6.21,1.16,9.22,2.06c4.28,1.29,5.32,2.78,5.43,7.22c0.1,3.66,0.12,7.33,0.06,10.99
			c-0.02,1.08-0.44,2.15-0.67,3.24c-3.08,0.53-3.63-1.64-4.37-3.38c-1.65-3.9-3.97-7.29-7.1-10.14c-5.81-5.29-15.39-6.68-22.39-3.23
			c-8.89,4.39-10.24,15.42-2.2,21.17c4.56,3.26,9.81,5.58,14.85,8.13c2.81,1.42,5.86,2.35,8.74,3.65c2.42,1.09,4.85,2.24,7.09,3.64
			c10.14,6.36,12.41,16.26,10.71,27.02c-1.98,12.55-9.46,21.23-21.88,24.64c-6.97,1.91-14.2,1.38-21.12-1.07
			C624.55,249.61,620.21,246.58,614.55,246.68z"/>
		<path class="st0" d="M152.56,330.88c2.17,0.1,3.63,0.21,5.1,0.23c3.13,0.03,6.26,0.01,9.98,0.01c0-4.11,0-7.85,0-11.89
			c1.96,0,3.32,0,4.93,0c0,10.85,0,21.43,0,32.48c-1.37,0.1-2.75,0.21-4.62,0.35c0-5.35,0-10.27,0-15.78
			c-5.16-0.25-9.88-0.23-15.09,0.03c0,5.07,0,9.99,0,15.33c-1.8,0.17-3.16,0.29-4.48,0.41c-0.93-4.03-1.08-26.89-0.27-32.83
			c1.32,0,2.68,0,4.44,0C152.56,323.09,152.56,326.7,152.56,330.88z"/>
		<path class="st0" d="M75.88,351.83c0-11.18,0-21.75,0-32.64c4.3-0.39,8.35-1.02,12.27,0.93c5.2,2.58,6.18,7.37,2.38,11.73
			c-0.43,0.49-1.06,0.8-1.82,1.36c1.42,1.02,2.49,1.72,3.48,2.51c4.75,3.8,4.75,9.98-0.27,13.43c-1.98,1.36-4.49,2.06-6.85,2.73
			c-1.39,0.39-2.97,0.19-4.46,0.18C79.16,352.04,77.7,351.92,75.88,351.83z M80.96,337.25c0,3.53,0,6.87,0,10.23
			c2.74,0.67,4.94-0.1,6.87-1.31c3.93-2.46,3.6-6.34-0.57-8.37C85.27,336.84,83.24,336.66,80.96,337.25z M80.82,331.75
			c3.05,0.61,4.96-0.37,6.45-2.17c0.46-5.4-1.15-6.84-6.45-5.83C80.82,326.3,80.82,328.87,80.82,331.75z"/>
		<path class="st0" d="M484.73,352.1c0-11.37,0-21.95,0-32.87c1.57,0,2.94,0,4.71,0c0,3.81,0,7.42,0,10.99
			c2.66,1.46,5.18,0.75,7.59,0.87c2.3,0.11,4.62,0.02,7.52,0.02c0-4.03,0-7.75,0-11.84c1.94,0,3.29,0,4.89,0
			c0,10.78,0,21.36,0,32.44c-1.34,0.09-2.7,0.18-4.55,0.3c0-5.37,0-10.29,0-15.7c-5.17-0.33-9.9-0.26-15.11-0.02
			c0,5.09,0,10,0,15.33C487.98,351.8,486.62,351.92,484.73,352.1z"/>
		<path class="st0" d="M352.86,351.79c-1.97,0-3.23,0-4.47,0c-0.91-3.61-1.11-26.17-0.26-32.57c3.66-0.63,7.47-0.65,11.18-0.08
			c4.21,0.65,7.71,4.54,8.16,8.39c0.41,3.49-1.82,7.22-5.61,9.25c-0.85,0.46-1.8,0.74-3.09,1.26c3.02,4.6,5.88,8.96,9.02,13.76
			c-2.02,0.12-3.47,0.21-5.23,0.32c-2.97-4.3-5.95-8.61-8.93-12.91c-0.26,0.09-0.52,0.19-0.78,0.28
			C352.86,343.38,352.86,347.27,352.86,351.79z M352.97,323.3c0,3.58,0,6.94,0,10.54c3.5,0.37,6.53,0.23,8.58-2.79
			c1.13-1.65,1.11-3.47-0.02-5.13C359.44,322.86,356.39,322.9,352.97,323.3z"/>
		<path class="st0" d="M692.26,351.73c-1.03,0-2.1,0-3.68,0c-0.13-5.1-0.26-10.14-0.39-15.38c-5.34,0-10.11,0-15.36,0
			c0,5,0,9.91,0,15.29c-1.8,0.15-3.15,0.26-4.85,0.4c0-11.04,0-21.62,0-32.74c1.22-0.12,2.57-0.26,4.55-0.45c0,4.2,0,7.94,0,11.97
			c5.46,0,10.36,0,15.83,0c0-3.87,0-7.61,0-11.6c1.64,0,2.71,0,3.76,0C692.96,323.06,693.08,346.34,692.26,351.73z"/>
		<path class="st0" d="M591.61,351.8c-1.93,0-3.36,0-4.96,0c-1.31-2.51-2.6-4.99-4-7.69c-4.46,0-8.89,0-13.75,0
			c-1.13,2.35-2.34,4.85-3.68,7.63c-1.35,0-2.76,0-4.08,0c-0.77-1.32,10.79-27.52,14.97-33.99
			C581.31,329.19,586.36,340.29,591.61,351.8z M570.77,339.28c3.67,0.67,6.61,0.74,9.92,0.03c-1.66-3.63-3.1-6.79-4.92-10.76
			C573.93,332.49,572.5,335.56,570.77,339.28z"/>
		<path class="st0" d="M112.29,319.06c6.02,0,11.81,0,18.03,0c0.1,1.19,0.19,2.38,0.34,4.17c-4.64,0-8.87,0-13.46,0
			c0,2.96,0,5.34,0,8.31c4.3,0,8.54,0,12.99,0c0.23,1.59,0.39,2.66,0.64,4.34c-4.66,0.15-9.04,0.28-13.72,0.43
			c-0.38,3.78-0.56,7.32,0.16,11c4.35,0,8.46,0,13.08,0c0.13,1.45,0.25,2.79,0.4,4.47c-6.37,0-12.28,0-18.18,0
			C111.61,348.31,111.38,325.9,112.29,319.06z"/>
		<path class="st0" d="M546.3,318.92c0,1.67,0,2.89,0,4.45c-4.53,0-8.78,0-13.33,0c0,2.76,0,5.18,0,7.88
			c4.2,1.33,8.75-0.13,13.31,0.91c0,1.2,0,2.27,0,3.81c-4.4,0-8.65,0-13.26,0c0,3.84,0,7.22,0,11.01c4.35,0.14,8.59,0.28,13.15,0.43
			c0.13,1.59,0.23,2.8,0.35,4.35c-6.28,0-12.2,0-18.14,0c-0.99-3.33-1.3-24.08-0.4-32.72C533.94,318.7,539.98,318.91,546.3,318.92z"
			/>
		<path class="st0" d="M386.8,352.04c-1.39-0.09-2.67-0.17-3.8-0.24c-0.18-0.43-0.33-0.61-0.28-0.71
			c4.74-10.94,9.49-21.88,14.51-33.43c3.04,3.65,3.98,7.7,5.81,11.24c1.91,3.69,3.5,7.53,5.21,11.32c1.69,3.75,3.35,7.51,5.18,11.62
			c-1.91,0-3.34,0-4.85,0c-1.35-2.6-2.64-5.09-4.03-7.75c-4.51,0-8.95,0-13.78,0C389.5,346.63,388.19,349.26,386.8,352.04z
			 M397.67,328.49c-1.86,4.1-3.33,7.33-4.99,10.99c3.47,0,6.48,0,9.97,0C401.01,335.87,399.54,332.62,397.67,328.49z"/>
		<path class="st0" d="M203.23,317.17c5.45,11.96,10.45,22.95,15.69,34.48c-1.82,0.18-3.18,0.32-4.77,0.48
			c-1.41-2.86-2.73-5.52-4.13-8.35c-4.44,0-8.87,0-13.72,0c-1.17,2.48-2.43,5.16-3.79,8.03c-1.44,0-2.86,0-5.03,0
			C192.72,340.31,197.75,329.23,203.23,317.17z M203.24,328.41c-1.85,4.13-3.3,7.37-4.8,10.72c4.81,0.9,5.52,0.88,9.38-0.25
			C206.44,335.73,205.08,332.62,203.24,328.41z"/>
		<path class="st0" d="M632.04,323.51c0-1.66,0-2.87,0-4.36c6.79,0,13.36,0,20.25,0c0.08,1.19,0.16,2.26,0.26,3.77
			c-2.63,0.22-5.02,0.41-7.87,0.65c0,9.45,0,18.68,0,28.22c-1.73,0.09-2.98,0.16-4.38,0.23c-0.24-0.79-0.59-1.4-0.59-2
			c-0.05-7.15-0.03-14.3-0.06-21.44c-0.01-1.61-0.13-3.23-0.22-5.07C636.98,323.51,634.87,323.51,632.04,323.51z"/>
		<path class="st0" d="M606.78,351.8c0-11.1,0-21.68,0-32.6c1.44-0.1,2.69-0.19,4.51-0.31c0.5,4.82,0.19,9.42,0.25,14
			c0.06,4.65,0.01,9.29,0.01,14.31c3.4,0,6.63,0,10.37,0c0.19,1.63,0.35,2.95,0.54,4.6C617.03,351.8,612.13,351.8,606.78,351.8z"/>
		<path class="st0" d="M443.56,347.21c0,1.85,0,3.09,0,4.62c-1.53,0.09-2.82,0.21-4.12,0.22c-3.45,0.03-6.91,0.01-10.65,0.01
			c0-11.18,0-21.88,0-32.92c1.42-0.07,2.68-0.12,4.44-0.2c0.51,4.82,0.2,9.43,0.25,14.02c0.06,4.64,0.01,9.28,0.01,14.24
			C436.81,347.21,439.89,347.21,443.56,347.21z"/>
		<path class="st0" d="M277.17,351.78c-1.54,0-2.8,0-4.31,0c0-10.85,0-21.43,0-32.5c1.3-0.13,2.67-0.27,3.99-0.4
			C277.8,322.79,278,345.35,277.17,351.78z"/>
	</g>
</g>
</svg>
